<?xml version="1.0" standalone="no"?>
<!DOCTYPE svg PUBLIC "-//W3C//DTD SVG 20010904//EN"
 "http://www.w3.org/TR/2001/REC-SVG-20010904/DTD/svg10.dtd">
<svg version="1.0" xmlns="http://www.w3.org/2000/svg"
 width="400.000000pt" height="400.000000pt" viewBox="0 0 400.000000 400.000000"
 preserveAspectRatio="xMidYMid meet">
<metadata>
Created by potrace 1.11, written by Peter Selinger 2001-2013
</metadata>
<g transform="translate(0.000000,400.000000) scale(0.100000,-0.100000)"
fill="#000000" stroke="none">
<path d="M1497 3074 c-1 -1 -22 -5 -47 -9 -25 -3 -52 -8 -60 -10 -8 -2 -35 -7
-60 -10 -25 -3 -69 -10 -99 -15 -30 -6 -56 -10 -58 -10 -2 0 -3 -137 -3 -304
l0 -304 -67 26 c-134 50 -350 35 -477 -32 -144 -77 -243 -224 -285 -423 -23
-109 -22 -315 2 -414 61 -252 234 -413 498 -464 70 -13 324 -14 389 -1 14 2
48 7 75 11 40 4 137 22 165 30 3 1 22 5 43 9 l37 8 0 959 0 959 -26 -2 c-14
-2 -26 -3 -27 -4z m-387 -951 l55 -19 3 -341 2 -341 -27 -5 c-16 -3 -69 -5
-119 -5 -79 0 -97 3 -151 29 -111 53 -164 156 -169 329 -7 206 53 332 176 369
49 15 164 7 230 -16z"/>
<path d="M2595 2903 c-170 -32 -330 -98 -415 -173 -14 -12 -36 -32 -50 -44
-43 -36 -116 -131 -153 -198 -37 -67 -84 -190 -92 -242 -3 -17 -10 -56 -15
-86 -9 -58 -6 -323 5 -375 56 -262 162 -435 334 -549 111 -74 197 -107 344
-132 130 -23 422 -12 572 20 87 19 126 29 168 42 l47 16 0 434 0 434 -195 0
-195 0 0 -304 0 -304 -27 -5 c-16 -3 -86 -4 -158 -3 -177 3 -251 31 -354 136
-48 48 -100 150 -122 240 -21 81 -18 317 4 400 35 130 102 231 189 286 154 97
460 95 656 -5 23 -12 45 -21 51 -21 7 0 89 210 116 297 4 11 -23 26 -130 73
-39 18 -157 44 -265 60 -55 8 -277 10 -315 3z"/>
</g>
</svg>
